<svg width="912" height="528" viewBox="0 0 912 528" fill="none" xmlns="http://www.w3.org/2000/svg">
<path d="M712.781 260.911C670.304 246.895 645.241 217.744 639.851 174.109C632.646 115.784 674.727 68.3444 727.214 61.2402C775.011 54.7706 821.852 83.1624 837.974 130.044C856.564 184.105 824.202 246.154 769.002 260.921C766.042 261.713 763.1 262.571 759.441 263.596C820.701 274.683 851.773 327.74 845.609 376.656C838.875 430.091 795.221 468.007 743.907 467.415C689.308 466.785 650.455 426.655 643.453 380.878C635.259 327.303 668.99 275.869 726.076 264.065C721.524 262.976 717.354 261.978 712.781 260.911ZM659.986 382.943C669.641 430.46 719.061 461.508 766.791 448.469C807.921 437.233 835.742 395.862 829.514 353.475C822.293 304.334 778.674 272.145 729.902 279.969C682.214 287.619 649.927 334.698 659.986 382.943ZM816.956 203.448C826.939 184.065 829.786 163.725 824.852 142.445C816.036 104.418 779.561 72.1904 732.989 76.85C700.731 80.0776 677.447 96.8278 663.455 125.398C645.155 162.764 656.177 206.017 689.255 231.429C708.189 245.975 729.884 251.515 753.247 248.016C781.259 243.821 802.44 228.778 816.956 203.448Z" fill="black"/>
<path d="M712.781 260.911C670.304 246.895 645.241 217.744 639.851 174.109C632.646 115.784 674.727 68.3444 727.214 61.2402C775.011 54.7706 821.852 83.1624 837.974 130.044C856.564 184.105 824.202 246.154 769.002 260.921C766.042 261.713 763.1 262.571 759.441 263.596C820.701 274.683 851.773 327.74 845.609 376.656C838.875 430.091 795.221 468.007 743.907 467.415C689.308 466.785 650.455 426.655 643.453 380.878C635.259 327.303 668.99 275.869 726.076 264.065C721.524 262.976 717.354 261.978 712.781 260.911ZM659.986 382.943C669.641 430.46 719.061 461.508 766.791 448.469C807.921 437.233 835.742 395.862 829.514 353.475C822.293 304.334 778.674 272.145 729.902 279.969C682.214 287.619 649.927 334.698 659.986 382.943ZM816.956 203.448C826.939 184.065 829.786 163.725 824.852 142.445C816.036 104.418 779.561 72.1904 732.989 76.85C700.731 80.0776 677.447 96.8278 663.455 125.398C645.155 162.764 656.177 206.017 689.255 231.429C708.189 245.975 729.884 251.515 753.247 248.016C781.259 243.821 802.44 228.778 816.956 203.448Z" fill="black"/>
<path d="M659.986 382.943C669.64 430.46 719.061 461.508 766.791 448.469C807.921 437.233 835.742 395.862 829.514 353.475C822.293 304.334 778.673 272.145 729.902 279.969C682.214 287.619 649.927 334.698 659.986 382.943ZM816.956 203.448C826.939 184.065 829.786 163.726 824.852 142.445C816.035 104.418 779.56 72.1904 732.989 76.85C700.731 80.0776 677.447 96.8278 663.455 125.398C645.155 162.764 656.177 206.017 689.255 231.429C708.189 245.975 729.884 251.515 753.246 248.016C781.259 243.821 802.44 228.778 816.956 203.448Z" fill="#0B84FF"/>
<path d="M147.002 263.205C95.4053 252.5 62.9592 205.544 65.794 157.991C69.2877 99.3838 114.8 65.1477 158.043 61.2788C215.809 56.1106 261.85 97.8959 268.949 149.112C276.16 201.136 240.612 255.779 183.817 263.979C209.053 268.324 230.158 279.914 246.647 299.436C263.24 319.081 271.47 342.146 270.69 367.628C268.986 423.273 226.155 465.994 171.033 467.627C121.576 469.093 78.7266 435.044 68.4809 385.346C58.161 335.287 87.4949 277.497 150.918 264.13C149.594 263.817 148.478 263.552 147.002 263.205ZM223.903 228.393C249.125 205.929 258.58 177.612 251.762 145.03C244.958 112.514 224.771 90.0295 192.719 80.6018C161.205 71.3323 132.328 77.913 108.116 100.887C79.8781 127.68 73.2996 172.075 92.2736 205.104C119.146 251.881 180.884 264.909 223.903 228.393ZM224.523 431.016C249.478 408.713 259.212 380.715 252.864 348.192C246.509 315.635 226.485 293.396 194.948 283.301C162.44 272.895 133.021 280.071 108.315 303.882C82.1261 329.121 74.9412 369.341 90.3319 401.514C115.191 453.478 179.196 467.833 224.523 431.016Z" fill="black"/>
<path d="M223.903 228.393C249.125 205.93 258.58 177.612 251.762 145.03C244.958 112.514 224.771 90.0298 192.72 80.6021C161.205 71.3325 132.329 77.9133 108.117 100.887C79.8786 127.68 73.3001 172.076 92.2741 205.104C119.146 251.881 180.884 264.91 223.903 228.393ZM224.524 431.016C249.478 408.713 259.213 380.715 252.864 348.193C246.509 315.636 226.486 293.397 194.948 283.301C162.441 272.896 133.022 280.072 108.316 303.882C82.1266 329.121 74.9417 369.342 90.3325 401.514C115.191 453.478 179.196 467.833 224.524 431.016Z" fill="#0B84FF"/>
<path d="M348.707 84.3836C434.69 84.3827 520.173 84.382 605.656 84.3822C607.656 84.3822 609.657 84.3349 611.655 84.4081C618.139 84.6458 621.029 87.5589 621.042 94.0339C621.081 112.53 621.065 131.027 621.065 149.523C621.065 177.684 621.067 205.845 621.054 234.006C621.05 242.371 618.478 244.963 609.955 244.965C506.476 244.982 402.996 244.982 299.516 244.968C291.049 244.967 288.358 242.305 288.355 234.032C288.339 187.874 288.335 141.717 288.345 95.559C288.347 86.7912 290.778 84.4119 299.717 84.3973C315.88 84.3709 332.043 84.3861 348.707 84.3836ZM305.39 228.416C310.444 229.987 315.655 229.222 320.765 229.206C365.41 229.066 410.054 229.342 454.702 228.949C501.341 228.538 547.989 229.131 594.634 229.281C596.466 229.287 598.299 229.256 600.131 229.25C603.72 229.236 605.456 227.874 605.444 223.852C605.324 184.2 605.345 144.548 605.406 104.896C605.411 101.485 604.349 100.016 600.733 100.359C597.096 100.703 593.412 100.602 589.748 100.602C497.283 100.608 404.817 100.6 312.352 100.597C304.042 100.597 304.034 100.603 304.035 109.126C304.038 146.945 304.04 184.765 304.071 222.584C304.072 224.378 303.634 226.265 305.39 228.416Z" fill="black"/>
<path d="M305.39 228.416C310.443 229.987 315.654 229.223 320.765 229.207C365.41 229.066 410.054 229.342 454.701 228.949C501.34 228.538 547.988 229.131 594.633 229.282C596.465 229.288 598.298 229.257 600.13 229.25C603.719 229.236 605.456 227.874 605.443 223.852C605.323 184.2 605.344 144.548 605.405 104.896C605.41 101.485 604.348 100.017 600.732 100.359C597.095 100.703 593.411 100.602 589.748 100.602C497.282 100.608 404.817 100.6 312.351 100.597C304.041 100.597 304.033 100.604 304.034 109.126C304.037 146.946 304.039 184.765 304.07 222.584C304.072 224.379 303.633 226.266 305.39 228.416Z" fill="#EEEEEE"/>
<path d="M361.706 286.277C441.365 286.276 520.523 286.278 599.682 286.271C604.005 286.27 608.35 285.907 612.647 286.226C619.188 286.712 621.036 288.883 621.046 295.465C621.084 318.463 621.069 341.46 621.069 364.458C621.07 388.122 621.074 411.786 621.058 435.451C621.052 443.502 618.635 446.023 610.738 446.025C506.748 446.039 402.759 446.038 298.769 446.022C290.956 446.02 288.352 443.366 288.35 435.485C288.336 389.823 288.345 344.161 288.35 298.499C288.351 287.736 290.228 285.78 301.228 285.821C321.221 285.895 341.213 286.117 361.706 286.277ZM489.206 430.372C525.69 430.372 562.174 430.381 598.658 430.365C605.365 430.362 605.38 430.314 605.381 423.744C605.391 385.427 605.395 347.111 605.395 308.794C605.394 301.974 605.381 301.957 598.523 301.956C502.564 301.954 406.606 301.955 310.648 301.961C304.013 301.962 303.995 301.981 303.994 308.53C303.99 346.846 303.993 385.163 303.999 423.479C304 430.378 304.01 430.386 310.783 430.386C369.924 430.383 429.065 430.377 489.206 430.372Z" fill="black"/>
<path d="M489.206 430.372C525.69 430.372 562.174 430.381 598.658 430.364C605.365 430.361 605.379 430.314 605.381 423.744C605.39 385.427 605.395 347.111 605.394 308.794C605.394 301.974 605.38 301.956 598.522 301.956C502.564 301.954 406.606 301.955 310.648 301.961C304.012 301.961 303.995 301.981 303.994 308.529C303.99 346.846 303.993 385.163 303.999 423.479C304 430.377 304.009 430.386 310.783 430.385C369.924 430.383 429.065 430.377 489.206 430.372Z" fill="#26C740"/>
</svg>
